# xmcd
#
# Track frame offsets: 
#        150
#        12237
#        32034
#        52530
#        73783
#        95507
#        115284
#        126256
#        146971
#        167375
#        186783
#        211368
#        233062
#        252728
#        273331
#        291616
#
# Disc length: 4083 seconds
#
# Revision: 10
# Processed by: cddbd v1.5.2PL0 Copyright (c) Steve Scherf et al.
# Submitted via: ExactAudioCopyFreeDBPlugin 1.0
#
DISCID=f10ff110
DTITLE=Various Artist - 舞-HiME BEST COLLECTION
DYEAR=2005
DGENRE=Anime
TTITLE0=梶浦由記 - 媛星
TTITLE1=栗林みな実 - Shining☆Days
TTITLE2=美郷あき - TOMORROW’S TRUE
TTITLE3=鴇羽舞衣(CV:中原麻衣) - 愛しさの交差点
TTITLE4=玖我なつき(CV:千葉紗子)/ - 水辺の花
TTITLE5=美袋命(CV:清水愛)/ - ココロの剣
TTITLE6=アリッサ・シアーズ(CV:宮村優子)/ - It's only the fairy tale
TTITLE7=栗林みな実 - 小さな星が降りる時
TTITLE8=鴇羽 舞衣(CV:中原 麻衣)　玖我 なつき(CV:千葉 紗子)　美袋命(CV:清水愛) - Parade
TTITLE9=妖精帝國 - last moment
TTITLE10=妖精帝國 - Fortuna
TTITLE11=ALI PROJECT - 阿修羅姫
TTITLE12=美郷あき - Silent wing
TTITLE13=美郷あき - 君が空だった
TTITLE14=鴇羽 舞衣(CV:中原 麻衣)　玖我 なつき(CV:千葉 紗子)　美袋命(CV:清水愛) - 私立風華学園校歌～水晶の守り
TTITLE14=～
TTITLE15=梶浦由記 - 舞-HiME プロモーション用BGM
EXTD=YEAR: 2005
EXTT0=
EXTT1=
EXTT2=
EXTT3=
EXTT4=
EXTT5=
EXTT6=
EXTT7=
EXTT8=
EXTT9=
EXTT10=
EXTT11=
EXTT12=
EXTT13=
EXTT14=
EXTT15=
PLAYORDER=
